<svg width="98" height="93" viewBox="0 0 98 93" fill="none" xmlns="http://www.w3.org/2000/svg">
<path fill-rule="evenodd" clip-rule="evenodd" d="M48.91 0C21.8956 0 0 21.242 0 47.45C0 68.406 14.0164 86.19 33.4464 92.482C35.8852 92.924 36.7964 91.442 36.7964 90.194C36.7964 89.05 36.7428 85.332 36.7428 81.354C23.1284 84.214 20.2608 75.764 20.2608 75.764C18.0364 70.278 14.8204 68.822 14.8204 68.822C10.3716 65.884 15.142 65.936 15.142 65.936C20.0464 66.274 22.646 70.824 22.646 70.824C27.0144 78.078 34.0896 75.972 36.8768 74.776C37.3056 71.708 38.592 69.628 39.9856 68.432C29.1316 67.236 17.688 63.154 17.688 44.98C17.688 39.806 19.5908 35.568 22.7264 32.24C22.2172 31.044 20.5556 26.208 23.2088 19.682C23.2088 19.682 27.3092 18.408 36.6624 24.544C40.5752 23.504 44.756 22.958 48.91 22.958C53.064 22.984 57.2448 23.504 61.1576 24.544C70.484 18.408 74.5844 19.682 74.5844 19.682C77.2376 26.208 75.576 31.044 75.0668 32.24C78.2024 35.568 80.1052 39.806 80.1052 44.98C80.1052 63.206 68.6616 67.21 57.7808 68.38C59.5228 69.862 61.104 72.748 61.104 77.168C61.104 83.512 61.0504 88.634 61.0504 90.194C61.0504 91.468 61.9348 92.924 64.4004 92.482C83.8304 86.19 97.82 68.432 97.82 47.45C97.82 21.242 75.9244 0 48.91 0Z" fill="#181616"/>
<path d="M18.5188 68.12C18.4116 68.354 18.0364 68.432 17.688 68.276C17.3396 68.12 17.1252 67.808 17.2592 67.574C17.3664 67.34 17.7416 67.262 18.09 67.418C18.4384 67.574 18.6528 67.886 18.5188 68.12Z" fill="#181616"/>
<path d="M20.502 70.278C20.2608 70.486 19.8052 70.382 19.5104 70.07C19.1888 69.732 19.1352 69.29 19.3764 69.082C19.6176 68.874 20.0464 68.978 20.368 69.29C20.6896 69.628 20.7432 70.07 20.502 70.278Z" fill="#181616"/>
<path d="M22.4316 73.008C22.1368 73.216 21.6544 73.034 21.3328 72.592C21.038 72.176 21.038 71.656 21.3328 71.448C21.6276 71.24 22.11 71.422 22.4316 71.838C22.7532 72.28 22.7532 72.8 22.4316 73.008Z" fill="#181616"/>
<path d="M25.0848 75.6339C24.8168 75.9199 24.254 75.8419 23.8252 75.4519C23.3964 75.0619 23.2892 74.5159 23.5572 74.2299C23.8252 73.9439 24.4148 74.0219 24.8168 74.4119C25.2456 74.8279 25.3528 75.3739 25.0848 75.6339Z" fill="#181616"/>
<path d="M28.7296 77.168C28.6224 77.532 28.0596 77.714 27.4968 77.558C26.934 77.402 26.5856 76.96 26.6928 76.596C26.8 76.232 27.3628 76.05 27.9256 76.206C28.4616 76.362 28.8368 76.804 28.7296 77.168Z" fill="#181616"/>
<path d="M32.7228 77.4539C32.7496 77.8439 32.2672 78.182 31.6776 78.182C31.088 78.208 30.6324 77.87 30.6056 77.48C30.6056 77.0899 31.0612 76.752 31.6508 76.752C32.2404 76.752 32.7228 77.0639 32.7228 77.4539Z" fill="#181616"/>
<path d="M36.448 76.856C36.5284 77.246 36.1264 77.636 35.5368 77.74C34.974 77.844 34.438 77.61 34.3844 77.22C34.304 76.83 34.7328 76.44 35.2956 76.336C35.8584 76.232 36.3676 76.466 36.448 76.856Z" fill="#181616"/>
</svg>
