<svg width="67" height="65" viewBox="0 0 67 65" fill="none" xmlns="http://www.w3.org/2000/svg">
<path d="M0.6875 0.5625H66.3125V64.4375H0.6875V0.5625ZM17.9323 53.9336C19.3906 56.9499 22.2708 59.434 27.1927 59.434C32.6615 59.434 36.4167 56.5951 36.4167 50.385V29.874H30.2187V50.2431C30.2187 53.2949 28.9427 54.0756 26.9375 54.0756C24.8229 54.0756 23.9479 52.6561 22.9635 50.9883L17.9323 53.9336ZM39.7344 53.2949C41.5573 56.7725 45.2396 59.434 51 59.434C56.8333 59.434 61.2083 56.4886 61.2083 51.0592C61.2083 46.0557 58.2552 43.8201 53.0052 41.6199L51.474 40.9812C48.8125 39.8811 47.6823 39.1359 47.6823 37.3616C47.6823 35.9067 48.8125 34.7711 50.6354 34.7711C52.3854 34.7711 53.5521 35.5163 54.6094 37.3616L59.3854 34.2743C57.3802 30.8676 54.5365 29.5547 50.6354 29.5547C45.1302 29.5547 41.5938 32.9613 41.5938 37.4681C41.5938 42.3651 44.5469 44.6717 48.9948 46.517L50.526 47.1558C53.3698 48.3623 55.0469 49.1075 55.0469 51.1657C55.0469 52.869 53.4062 54.111 50.8542 54.111C47.8281 54.111 46.0781 52.5851 44.7656 50.456L39.7344 53.2949Z" fill="#FFCA28"/>
</svg>
