<svg width="178" height="82" viewBox="0 0 178 82" fill="none" xmlns="http://www.w3.org/2000/svg">
<path d="M77.7137 44.2241C77.7137 47.2958 77.4591 48.2986 76.7808 49.0394C76.0409 49.6692 75.073 50.0178 74.0688 50.0154L74.3234 51.8419C75.8796 51.8616 77.3878 51.3435 78.5559 50.3873C79.7707 49.2215 80.195 47.6098 80.195 45.1362V33.5226H77.7079V44.2396L77.7137 44.2241Z" fill="#4E4E4E"/>
<path d="M96.2584 42.8243L96.3711 46.3162H94.1956L94.0544 44.2151H93.998C93.5414 44.948 92.881 45.5554 92.0848 45.9748C91.2905 46.3926 90.39 46.6063 89.4771 46.5938C87.3307 46.595 84.7652 45.4812 84.7652 40.9864V33.4987H87.2517V40.6032C87.2517 43.0398 88.0421 44.6777 90.2967 44.6777C91.0042 44.6658 91.6916 44.4598 92.274 44.0868C92.8564 43.7137 93.3067 43.1884 93.5697 42.5778C93.7207 42.1957 93.7965 41.7922 93.7965 41.3857V33.5094H96.283V42.8243H96.2584Z" fill="#4E4E4E"/>
<path d="M100.945 37.6866L100.832 33.4867H103.064L103.177 35.6816H103.233C103.72 34.8966 104.431 34.2491 105.288 33.8091C106.142 33.3702 107.111 33.1567 108.089 33.1918C111.389 33.1918 113.875 35.8171 113.875 39.703C113.875 44.3082 110.886 46.5819 107.659 46.5819C106.83 46.614 106.007 46.4454 105.27 46.093C104.532 45.7394 103.906 45.2149 103.454 44.5709H103.398V51.5285H100.94V37.6651L100.945 37.6866ZM103.403 41.0998C103.41 41.419 103.447 41.7371 103.516 42.0501C103.717 42.8247 104.194 43.5149 104.871 44.0109C105.544 44.5047 106.379 44.7742 107.24 44.7756C109.868 44.7756 111.388 42.764 111.388 39.8296C111.388 37.2616 109.947 35.0662 107.325 35.0662C106.444 35.0888 105.596 35.3855 104.915 35.9018C104.235 36.4182 103.762 37.1434 103.573 37.9433C103.473 38.2519 103.416 38.5713 103.403 38.8936V41.0884V41.0998Z" fill="#4E4E4E"/>
<path d="M118.273 33.5107L121.262 41.0773L122.138 43.7025H122.195L123.071 41.0295L125.784 33.5167H128.412L124.687 42.6471C122.907 47.0369 121.698 49.2896 120.003 50.6661C119.146 51.4063 118.096 51.9256 116.958 52.1733L116.336 50.2154C117.133 49.9689 117.871 49.5827 118.511 49.0753C119.416 48.3734 120.131 47.4851 120.602 46.4811C120.703 46.3077 120.77 46.1194 120.8 45.9248C120.778 45.7147 120.72 45.5094 120.63 45.316L115.578 33.5167H118.291L118.273 33.5107Z" fill="#4E4E4E"/>
<path d="M134.938 29.8278V33.5036H138.492V35.2776H134.938V42.1839C134.938 43.7598 135.417 44.6731 136.802 44.6731C137.288 44.6802 137.773 44.6271 138.243 44.5155L138.356 46.2644C137.65 46.496 136.901 46.6029 136.152 46.5796C135.655 46.6077 135.157 46.5354 134.694 46.3665C134.231 46.1976 133.813 45.9367 133.468 45.6025C132.755 44.9148 132.507 43.7759 132.507 42.2681V35.2776H130.388V33.5036H132.507V30.4318L134.938 29.8278Z" fill="#4E4E4E"/>
<path d="M143.074 40.3323C143.13 43.4828 145.278 44.7793 147.758 44.7793C149.055 44.8169 150.345 44.5913 151.538 44.1179L151.962 45.7833C150.532 46.3415 148.991 46.6113 147.441 46.576C143.236 46.576 140.722 43.9818 140.722 40.1174C140.722 36.253 143.151 33.2123 147.129 33.2123C151.588 33.2123 152.78 36.8881 152.78 39.2453C152.776 39.6094 152.748 39.9718 152.696 40.3317H143.09L143.074 40.3323ZM150.358 38.6669C150.386 37.1865 149.708 34.8813 146.916 34.8813C144.402 34.8813 143.305 37.0499 143.107 38.6669H150.363H150.358Z" fill="#4E4E4E"/>
<path d="M156.397 37.5041L156.284 33.5071H158.459L158.544 36.0226H158.656C159.279 34.3005 160.776 33.2182 162.439 33.2182C162.677 33.2153 162.914 33.2421 163.151 33.297V35.4925C162.873 35.4364 162.588 35.4089 162.304 35.4137C160.552 35.4137 159.315 36.6583 158.976 38.4013C158.906 38.7601 158.868 39.1237 158.863 39.4883V46.3146H156.397V37.5041Z" fill="#4E4E4E"/>
<path d="M59.0506 16.5106C59.0806 17.1606 58.9031 17.804 58.5407 18.3589C58.1784 18.9138 57.6457 19.3582 57.011 19.6324C56.3763 19.9065 55.6672 20.0005 54.9773 19.901C54.2847 19.801 53.6402 19.5131 53.126 19.0741C52.6098 18.6333 52.2462 18.0619 52.081 17.4315C51.9154 16.8014 51.955 16.1381 52.195 15.5257C52.4339 14.9166 52.863 14.3862 53.4284 14.0013C53.9916 13.6177 54.6663 13.3979 55.366 13.3701C56.3019 13.3336 57.2161 13.6431 57.9072 14.2323C58.5983 14.8215 59.0086 15.6406 59.0494 16.5095L59.0506 16.5106Z" fill="#767677"/>
<path d="M38.4272 55.1568C29.0088 55.1568 20.7841 51.9776 16.5128 47.2706C18.1026 51.4934 21.0673 55.1524 24.9954 57.7424C28.9236 60.3325 33.6184 61.722 38.4332 61.722C43.248 61.722 47.9441 60.3314 51.871 57.7424C55.798 55.1535 58.7615 51.4934 60.3512 47.2706C56.0703 51.9776 47.8457 55.1568 38.4272 55.1568Z" fill="#F37726"/>
<path d="M38.4247 24.5429C47.8431 24.5429 56.069 27.7232 60.3391 32.429C58.7493 28.2063 55.7846 24.5473 51.8565 21.9572C47.9283 19.3672 43.2347 17.9766 38.4211 17.9766C33.6075 17.9766 28.9102 19.3672 24.9833 21.9561C21.0563 24.5451 18.0904 28.2052 16.5007 32.4279C20.7804 27.732 29.0062 24.5429 38.4247 24.5429Z" fill="#F37726"/>
<path d="M25.4969 64.3089C25.5359 65.1273 25.3122 65.9382 24.8538 66.6402C24.3955 67.3411 23.726 67.9004 22.9245 68.2453C22.123 68.5902 21.2448 68.7096 20.3605 68.5836C19.4763 68.4576 18.676 68.095 18.0269 67.5401C17.3778 66.9851 16.9207 66.2655 16.7107 65.4685C16.5028 64.6719 16.5538 63.8365 16.8571 63.0664C17.1606 62.297 17.7029 61.6293 18.4168 61.1429C19.1307 60.6565 19.9802 60.3846 20.8608 60.3514C22.0402 60.3072 23.1884 60.6985 24.0595 61.4403C24.9301 62.1851 25.4466 63.2163 25.4969 64.31V64.3089Z" fill="#989798"/>
<path d="M17.5866 23.4772C17.0707 23.4993 16.5572 23.3755 16.1145 23.1257C15.6717 22.8758 15.319 22.5088 15.1006 22.0744C14.8823 21.64 14.8091 21.1514 14.8883 20.676C14.9675 20.2007 15.1966 19.7563 15.547 19.4026C15.8973 19.0488 16.3532 18.799 16.8548 18.684C17.3563 18.5691 17.8866 18.5978 18.3725 18.7636C18.8584 18.9294 19.2808 19.2246 19.5843 19.6148C19.9416 20.0695 20.1181 20.6237 20.084 21.1842C20.0499 21.7447 19.8074 22.2773 19.3971 22.6923C18.9292 23.1677 18.2765 23.4485 17.5854 23.4772H17.5866Z" fill="#6F7070"/>
</svg>
