<svg width="173" height="63" viewBox="0 0 173 63" fill="none" xmlns="http://www.w3.org/2000/svg">
<path d="M67.2457 15.1962H74.0002V29.8366L86.4626 15.1962H94.6169L82.1137 29.3328L95.1877 48.6114H87.0674L77.5541 34.3562L74.0002 38.372V48.6114H67.2457V15.1962ZM91.5998 36.0011V35.9047C91.5998 28.54 97.036 22.5683 104.375 22.5683C111.659 22.5683 117.055 28.4511 117.055 35.9047V36.0011C117.055 43.3658 111.619 49.3375 104.28 49.3375C96.9953 49.3375 91.5998 43.4547 91.5998 36.0011ZM110.463 36.0011V35.9047C110.463 32.2002 107.963 28.8216 104.348 28.8216C100.529 28.8216 98.2456 32.0298 98.2456 35.8084V35.9047C98.2456 39.6093 100.746 42.9879 104.361 42.9879C108.18 42.9879 110.457 39.7797 110.457 36.0011H110.463Z" fill="#000400"/>
<path d="M118.89 41.4097V29.3328H116.083V23.1091H118.89V16.552H125.549V23.1091H131.08V29.3328H125.549V40.2984C125.549 41.9728 126.208 42.7878 127.696 42.7878C128.846 42.7929 129.977 42.4793 130.985 41.8765V47.7149C129.578 48.6263 127.961 49.1968 125.719 49.1968C121.642 49.1968 118.876 47.4186 118.876 41.4912L118.89 41.4097ZM133.003 13.7588H139.663V48.6781H133.003V13.7588ZM142.082 13.7588H149.101V20.2196H142.089L142.082 13.7588ZM142.258 23.0425H148.918V48.6781H142.258V23.0425ZM151.466 23.0425H158.125V26.6729C159.661 24.5243 161.638 22.5609 165.016 22.5609C170.065 22.5609 173 26.1913 173 32.0816V48.6781H166.341V34.371C166.341 30.9258 164.846 29.155 162.304 29.155C159.763 29.155 158.139 30.9332 158.139 34.371V48.6707H151.48L151.466 23.0425Z" fill="#000400"/>
<path d="M29.0157 0.0148172L0 33.2597V62.9926L28.9613 31.3555L57.7731 0L29.0157 0.0148172Z" fill="url(#paint0_linear_2_138)"/>
<path d="M0 63L28.9613 31.3629L57.7731 63H0Z" fill="url(#paint1_linear_2_138)"/>
<path d="M0 0.0148926H29.0157L0 33.2598V0.0148926Z" fill="url(#paint2_linear_2_138)"/>
<defs>
<linearGradient id="paint0_linear_2_138" x1="-9.71719" y1="57.9247" x2="48.678" y2="4.36806" gradientUnits="userSpaceOnUse">
<stop offset="0.108" stop-color="#C757BC"/>
<stop offset="0.173" stop-color="#CD5CA9"/>
<stop offset="0.492" stop-color="#E8744F"/>
<stop offset="0.716" stop-color="#F88316"/>
<stop offset="0.823" stop-color="#FF8900"/>
</linearGradient>
<linearGradient id="paint1_linear_2_138" x1="18.4423" y1="74.3656" x2="46.9054" y2="48.2609" gradientUnits="userSpaceOnUse">
<stop offset="0.296" stop-color="#00AFFF"/>
<stop offset="0.694" stop-color="#5282FF"/>
<stop offset="1" stop-color="#945DFF"/>
</linearGradient>
<linearGradient id="paint2_linear_2_138" x1="-0.686319" y1="17.3968" x2="19.2807" y2="-0.915822" gradientUnits="userSpaceOnUse">
<stop offset="0.296" stop-color="#00AFFF"/>
<stop offset="0.694" stop-color="#5282FF"/>
<stop offset="1" stop-color="#945DFF"/>
</linearGradient>
</defs>
</svg>
