<svg width="110" height="105" viewBox="0 0 110 105" fill="none" xmlns="http://www.w3.org/2000/svg">
<g clip-path="url(#clip0_2_229)">
<path d="M100.05 0H9.95039C4.455 0 0 4.2525 0 9.4981V95.5016C0 100.748 4.455 105 9.95039 105H100.049C105.545 105 110 100.748 110 95.5016V9.4981C110 4.2525 105.545 0 100.05 0ZM34.0387 90.6639C34.0387 92.1905 32.7423 93.428 31.143 93.428H18.8166C17.2173 93.428 15.9209 92.1905 15.9209 90.6639V41.3411C15.9209 39.8145 17.2173 38.5771 18.8166 38.5771H31.143C32.7423 38.5771 34.0387 39.8145 34.0387 41.3411V90.6639ZM24.9798 33.9276C18.5125 33.9276 13.2697 28.9231 13.2697 22.7498C13.2697 16.5765 18.5125 11.572 24.9798 11.572C31.447 11.572 36.6899 16.5765 36.6899 22.7498C36.6899 28.9231 31.4473 33.9276 24.9798 33.9276ZM98.4558 90.8866C98.4558 92.2901 97.2636 93.428 95.7933 93.428H82.5662C81.0959 93.428 79.9038 92.2901 79.9038 90.8866V67.7514C79.9038 64.3001 80.9643 52.6278 70.455 52.6278C62.3032 52.6278 60.6497 60.6172 60.3177 64.2026V90.8866C60.3177 92.2901 59.1259 93.428 57.6553 93.428H44.8624C43.3921 93.428 42.2 92.2901 42.2 90.8866V41.1185C42.2 39.715 43.3921 38.5771 44.8624 38.5771H57.6553C59.1256 38.5771 60.3177 39.715 60.3177 41.1185V45.4216C63.3404 41.0916 67.8326 37.7494 77.3971 37.7494C98.577 37.7494 98.4558 56.6373 98.4558 67.0153V90.8866Z" fill="#0077B7"/>
</g>
<defs>
<clipPath id="clip0_2_229">
<rect width="110" height="105" fill="white"/>
</clipPath>
</defs>
</svg>
