<svg width="225" height="63" viewBox="0 0 225 63" fill="none" xmlns="http://www.w3.org/2000/svg">
<g clip-path="url(#clip0_2_136)">
<path d="M149.573 0.026001H188.764V10.0012H173.217V62.4794H165.444V10.0012H149.573V0.026001Z" fill="black"/>
<path d="M85.1185 0.026001V10.0012H53.7042V26.0483H78.9676V36.0234H53.7042V52.5042H85.1185V62.4794H45.9308V10.0012H45.9276V0.026001H85.1185Z" fill="black"/>
<path d="M104.688 0.052124H94.5148L130.952 62.5056H141.155L122.934 31.3003L141.126 0.099772L130.952 0.121452L117.841 22.5774L104.688 0.052124Z" fill="black"/>
<path d="M115.127 44.6629L110.032 35.928L94.4857 62.5531H104.688L115.127 44.6629Z" fill="black"/>
<path fill-rule="evenodd" clip-rule="evenodd" d="M46.2032 62.4795L9.71675 0H0V62.4534H7.77341V13.3494L36.4378 62.4795H46.2032Z" fill="black"/>
<path d="M190.512 62.098C189.942 62.098 189.458 61.8261 189.053 61.2822C188.647 60.7383 188.447 60.0798 188.452 59.2997C188.447 58.541 188.647 57.8896 189.053 57.3457C189.458 56.8018 189.942 56.5298 190.512 56.5298C191.059 56.5298 191.538 56.8018 191.944 57.3457C192.355 57.8896 192.56 58.541 192.566 59.2997C192.56 59.8149 192.465 60.2873 192.276 60.7095C192.081 61.139 191.834 61.4754 191.522 61.7188C191.217 61.9693 190.88 62.098 190.512 62.098Z" fill="black"/>
<path d="M203.779 35.7882H207.224V54.0892C207.219 55.7711 206.955 57.2097 206.439 58.4193C205.918 59.6288 205.196 60.552 204.269 61.2034C203.347 61.8474 202.268 62.1768 201.04 62.1768C199.918 62.1768 198.913 61.8976 198.017 61.3537C197.122 60.8098 196.411 59.9938 195.889 58.9202C195.362 57.8466 195.104 56.5083 195.104 54.9051H198.555C198.56 55.6065 198.676 56.2148 198.897 56.7229C199.118 57.2311 199.423 57.6175 199.813 57.8896C200.208 58.1616 200.661 58.2976 201.172 58.2976C201.725 58.2976 202.199 58.1401 202.583 57.818C202.968 57.503 203.263 57.0307 203.469 56.4009C203.668 55.7783 203.774 55.0053 203.779 54.0892V35.7882Z" fill="black"/>
<path d="M221.397 42.9454C221.313 41.836 220.944 40.97 220.302 40.3545C219.654 39.7318 218.816 39.4241 217.789 39.4241C217.068 39.4241 216.447 39.5744 215.93 39.8678C215.414 40.1684 215.014 40.5692 214.74 41.0773C214.466 41.5855 214.329 42.1653 214.318 42.8166C214.318 43.3605 214.413 43.8329 214.597 44.2266C214.782 44.6273 215.029 44.9637 215.351 45.2357C215.666 45.5148 216.019 45.7438 216.404 45.9299C216.794 46.116 217.184 46.2735 217.573 46.4023L219.369 47.0107C220.091 47.2397 220.792 47.5475 221.461 47.9411C222.129 48.3276 222.735 48.8215 223.267 49.4155C223.799 50.0096 224.22 50.7252 224.531 51.5627C224.842 52.4 225 53.3805 225 54.5114C225 56.0358 224.716 57.3743 224.141 58.5337C223.567 59.686 222.74 60.5878 221.655 61.2391C220.575 61.8833 219.269 62.2125 217.731 62.2125C216.246 62.2125 214.95 61.8977 213.86 61.2678C212.765 60.6451 211.911 59.729 211.295 58.5265C210.679 57.3242 210.347 55.8569 210.3 54.132H213.713C213.76 55.0338 213.971 55.7854 214.329 56.3937C214.692 56.9949 215.166 57.4387 215.746 57.7393C216.331 58.0327 216.983 58.183 217.705 58.183C218.458 58.183 219.122 58.0255 219.696 57.7178C220.265 57.41 220.712 56.9807 221.034 56.4224C221.361 55.8712 221.524 55.22 221.529 54.4756C221.524 53.7957 221.376 53.2302 221.092 52.7864C220.802 52.3428 220.402 51.9706 219.891 51.67C219.375 51.3694 218.774 51.0974 218.09 50.8612L215.909 50.1026C214.334 49.5515 213.086 48.7141 212.174 47.5904C211.258 46.4668 210.805 44.9781 210.805 43.11C210.805 41.5784 211.111 40.2329 211.727 39.0806C212.338 37.9283 213.176 37.0336 214.234 36.3966C215.298 35.7525 216.499 35.4375 217.837 35.4375C219.196 35.4375 220.386 35.7525 221.413 36.3966C222.44 37.0336 223.246 37.9211 223.83 39.0519C224.415 40.1827 224.721 41.4782 224.737 42.9454H221.397Z" fill="black"/>
</g>
<defs>
<clipPath id="clip0_2_136">
<rect width="225" height="63" fill="white"/>
</clipPath>
</defs>
</svg>
