<svg width="107" height="105" viewBox="0 0 107 105" fill="none" xmlns="http://www.w3.org/2000/svg">
<path d="M53.5 60.6178C58.1168 60.6178 61.8594 56.9451 61.8594 52.4147C61.8594 47.8842 58.1168 44.2115 53.5 44.2115C48.8832 44.2115 45.1406 47.8842 45.1406 52.4147C45.1406 56.9451 48.8832 60.6178 53.5 60.6178Z" fill="#00D8FF"/>
<path d="M53.5 71.2228C43.4525 71.4613 33.4301 70.1322 23.8075 67.2853C19.3624 65.9025 15.2165 63.7243 11.5794 60.8606C10.1915 59.8823 9.03572 58.621 8.19133 57.1631C7.34693 55.7053 6.83392 54.0854 6.6875 52.4147C6.6875 46.9908 12.7597 41.6751 22.9314 38.197C32.8113 35.1151 43.1341 33.6215 53.5 33.7739C63.7275 33.6337 73.9121 35.1003 83.6673 38.1183C87.9483 39.4575 91.9536 41.5305 95.4975 44.2411C96.8617 45.1738 98.0001 46.3894 98.8322 47.8019C99.6643 49.2144 100.17 50.7892 100.312 52.4147C100.313 58.0519 93.5247 63.7645 82.5906 67.3148C73.1543 70.069 63.3434 71.387 53.5 71.2228ZM53.5 37.6983C43.5828 37.5682 33.7078 38.9881 24.2455 41.9048C14.883 45.1106 10.6866 49.4944 10.6866 52.4048C10.6866 55.4498 15.1973 60.2372 25.1015 63.5611C34.3071 66.2709 43.8921 67.5323 53.5 67.2984C62.9174 67.4637 72.305 66.2133 81.3367 63.5906C91.6188 60.247 96.3 55.4531 96.3 52.4147C96.1313 51.372 95.7441 50.375 95.1628 49.4866C94.5815 48.5982 93.8188 47.8377 92.9228 47.2533C89.7521 44.8486 86.1741 43.0114 82.3532 41.8261C73.0209 38.9509 63.2804 37.5574 53.5 37.6983Z" fill="#00D8FF"/>
<path d="M34.5075 93.3286C32.9476 93.3637 31.4062 92.9923 30.0403 92.2523C25.252 89.542 23.5935 81.7261 25.6031 71.3409C27.8188 61.4023 31.658 51.8808 36.9719 43.1451C41.9565 34.3812 48.3379 26.4564 55.8741 19.6711C59.1949 16.7006 63.0259 14.331 67.1893 12.6721C68.6952 11.9796 70.3379 11.6206 72.001 11.6206C73.664 11.6206 75.3067 11.9796 76.8126 12.6721C81.7915 15.4875 83.44 24.1106 81.116 35.1782C78.8319 44.5776 75.0925 53.5776 70.0282 61.8646C65.219 70.525 59.0385 78.3809 51.7178 85.1386C48.2764 88.2255 44.2824 90.6607 39.9378 92.3212C38.1984 92.9547 36.3625 93.2953 34.5075 93.3286ZM40.436 45.0942C35.3672 53.4592 31.6876 62.5626 29.5354 72.0628C27.6863 81.6276 29.4618 87.3796 32.0432 88.8431C34.7182 90.3623 41.2117 88.9218 49.0963 82.1625C56.0848 75.6884 61.9839 68.1686 66.5741 59.8828C71.4256 51.9602 75.0127 43.3556 77.2105 34.3678C79.3974 23.9498 77.5081 17.5711 74.8264 16.0551C73.8214 15.6772 72.7473 15.508 71.6722 15.5583C70.597 15.6086 69.5442 15.8772 68.5803 16.3471C64.8744 17.8478 61.4673 19.9783 58.5156 22.6406C51.3154 29.14 45.2198 36.7268 40.4594 45.1139L40.436 45.0942Z" fill="#00D8FF"/>
<path d="M72.4825 93.3712C67.9517 93.3712 62.1971 90.6806 56.2051 85.6242C48.5369 78.7771 42.0476 70.7581 36.9886 61.8778C31.7413 53.2624 27.9326 43.8787 25.7067 34.0823C24.7414 29.7724 24.5626 25.3286 25.1784 20.9573C25.3208 19.3358 25.824 17.7646 26.6525 16.3546C27.481 14.9446 28.6146 13.7302 29.9734 12.7969C34.9455 9.97171 43.3818 12.8756 51.992 20.3766C59.1496 27.0118 65.2278 34.6851 70.0148 43.1287C75.2588 51.543 79.1075 60.7213 81.417 70.3205C82.4238 74.7886 82.5791 79.4009 81.8751 83.9245C81.7075 85.5927 81.1744 87.2057 80.3121 88.6527C79.4498 90.0998 78.2789 91.3468 76.8795 92.3081C75.5359 93.0389 74.0183 93.4058 72.4825 93.3712ZM40.4493 59.9025C45.3026 68.3892 51.5014 76.0638 58.8132 82.6383C66.3333 88.9875 72.2986 90.3525 74.8632 88.8726C77.5382 87.3469 79.511 81.1191 77.478 71.0423C75.2507 61.8776 71.5592 53.1166 66.5406 45.0844C61.9725 37.0031 56.1708 29.6555 49.337 23.2969C41.2318 16.2356 34.658 14.6573 31.9796 16.1798C31.1448 16.8455 30.4598 17.6739 29.9677 18.6125C29.4756 19.5512 29.1872 20.5797 29.1207 21.6333C28.5891 25.5317 28.7623 29.4916 29.6323 33.3309C31.7733 42.6994 35.4262 51.6719 40.4527 59.9091L40.4493 59.9025Z" fill="#00D8FF"/>
</svg>
