<svg width="133" height="113" viewBox="0 0 133 113" fill="none" xmlns="http://www.w3.org/2000/svg">
<g clip-path="url(#clip0_2_149)">
<path d="M13.7437 49.5028C10.0779 49.5028 7.79297 51.0724 6.88379 54.1826C8.25951 52.6174 9.87109 52.0409 11.6895 52.4373C12.7285 52.658 13.4839 53.2998 14.311 54.0272C15.6628 55.1961 17.2214 56.545 20.6275 56.545C24.2881 56.545 26.573 54.9754 27.4822 51.8652C26.1064 53.4304 24.4949 54.0069 22.6765 53.6105C21.6374 53.3898 20.8872 52.748 20.0549 52.0206C18.7031 50.8517 17.1445 49.5028 13.7437 49.5028ZM6.85989 56.5C3.19408 56.5 0.90918 58.0652 0 61.1789C1.37572 59.6101 2.9873 59.0381 4.80566 59.4344C5.84473 59.6551 6.60012 60.297 7.42722 61.0244C8.77904 62.1932 10.3376 63.5422 13.7437 63.5422C17.4043 63.5422 19.6892 61.9725 20.5984 58.8624C19.2227 60.4276 17.6111 61.0041 15.7927 60.6033C14.7536 60.3826 14.0034 59.7452 13.1712 59.0178C11.8432 57.8445 10.2846 56.5 6.85989 56.5Z" fill="url(#paint0_linear_2_149)"/>
<path d="M41.2258 55.3965H38.835V59.3489C38.835 60.4073 39.6382 60.3826 41.2248 60.3173V61.9072C38.0037 62.2383 36.7329 61.4861 36.7329 59.3489V55.3965H34.9624V53.6962H36.7329V51.4892L38.8111 50.9621V53.6962H41.1967V55.3965H41.2258ZM50.3696 53.6962H52.4477V61.9072H50.3696V60.7137C49.6391 61.5762 48.4993 62.1076 46.9926 62.1076C44.3669 62.1076 42.188 60.2069 42.188 57.7792C42.188 55.3312 44.3669 53.4552 46.9937 53.4552C48.4993 53.4552 49.6391 53.9822 50.3706 54.8447L50.3696 53.6962ZM47.3012 60.4277C49.0427 60.4277 50.3706 59.3241 50.3706 57.8039C50.3706 56.2793 49.0427 55.1758 47.3012 55.1758C45.565 55.1758 44.237 56.2793 44.237 57.8039C44.2661 59.3241 45.5639 60.4277 47.3012 60.4277ZM55.9265 52.462C55.2002 52.462 54.6038 51.9306 54.6038 51.3338C54.6038 50.7167 55.2002 50.21 55.9265 50.21C56.6538 50.21 57.2544 50.7167 57.2544 51.3338C57.2783 51.9306 56.6528 52.462 55.9265 52.462ZM54.8874 61.9072V53.6971H56.9656V61.9072H54.8874ZM59.3803 61.9072V49.924H61.4585V61.9072H59.3803ZM75.0484 53.6971H77.2564L74.2161 61.9072H72.1618L70.1606 56.3694L68.1355 61.9072H66.0865L63.0462 53.6971H65.2531L67.1234 59.3692L69.1496 53.6962H71.1508L73.1469 59.3692L75.0484 53.6971ZM79.8249 52.4612C79.0986 52.4612 78.5022 51.9315 78.5022 51.3338C78.5022 50.7167 79.0986 50.21 79.8249 50.21C80.5523 50.21 81.1529 50.7167 81.1529 51.3338C81.1768 51.9306 80.5803 52.4612 79.8249 52.4612ZM78.7859 61.9072V53.6971H80.864V61.9072H78.7859ZM88.3733 53.4764C90.5283 53.4764 92.0869 54.7344 92.0869 56.8514V61.9072H90.0088V57.0518C90.0088 55.7929 89.1526 55.1555 87.8538 55.1555C86.4781 55.1555 85.386 55.8379 85.386 57.5135V61.9276H83.3079V53.7209H85.386V54.7794C86.0354 53.8966 87.0745 53.4764 88.3733 53.4764ZM102.011 50.4104H104.089V61.9072H102.011V60.7137C101.284 61.5762 100.14 62.1076 98.634 62.1076C96.0073 62.1076 93.8284 60.2069 93.8284 57.7792C93.8284 55.3312 96.0073 53.4552 98.634 53.4552C100.14 53.4552 101.284 53.9822 102.011 54.8447V50.4104ZM98.9458 60.4277C100.683 60.4277 102.011 59.3241 102.011 57.8039C102.011 56.2793 100.683 55.1758 98.9458 55.1758C97.2053 55.1758 95.8774 56.2793 95.8774 57.8039C95.8774 59.3241 97.2043 60.4277 98.9458 60.4277ZM111.074 62.128C108.168 62.128 105.96 60.2317 105.96 57.8039C105.96 55.3515 108.139 53.4755 111.074 53.4755C112.974 53.4755 114.61 54.3142 115.389 55.5969L113.594 56.4797C113.181 55.7073 112.219 55.2208 111.05 55.2208C109.337 55.2208 108.063 56.3243 108.063 57.8039C108.063 59.2791 109.361 60.3826 111.05 60.3826C112.219 60.3826 113.152 59.8759 113.624 59.1282L115.413 59.9862C114.634 61.2902 112.974 62.128 111.074 62.128ZM118.896 55.9483C118.896 57.449 124.091 56.545 124.091 59.5899C124.091 61.2248 122.403 62.128 120.324 62.128C118.4 62.128 116.999 61.3758 116.375 60.2069L118.169 59.3241C118.477 60.0763 119.256 60.5177 120.324 60.5177C121.258 60.5177 121.96 60.252 121.96 59.5899C121.96 58.135 116.765 58.9481 116.765 56.0145C116.765 54.4696 118.323 53.5002 120.295 53.5002C121.883 53.5002 123.206 54.1173 123.884 55.1961L122.114 56.0383C121.777 55.3965 121.104 55.1105 120.295 55.1105C119.545 55.0858 118.896 55.3753 118.896 55.9483ZM127.805 55.9483C127.805 57.449 133 56.545 133 59.5899C133 61.2248 131.312 62.128 129.233 62.128C127.309 62.128 125.908 61.3758 125.285 60.2069L127.078 59.3241C127.39 60.0763 128.169 60.5177 129.233 60.5177C130.166 60.5177 130.869 60.252 130.869 59.5899C130.869 58.135 125.674 58.9481 125.674 56.0145C125.674 54.4696 127.232 53.5002 129.209 53.5002C130.792 53.5002 132.115 54.1173 132.793 55.1961L131.027 56.0383C130.686 55.3965 130.013 55.1105 129.208 55.1105C128.454 55.0858 127.805 55.3753 127.805 55.9483Z" fill="#2D3748"/>
</g>
<defs>
<linearGradient id="paint0_linear_2_149" x1="-0.73532" y1="53.9536" x2="20.9272" y2="68.6543" gradientUnits="userSpaceOnUse">
<stop stop-color="#2298BD"/>
<stop offset="1" stop-color="#0ED7B5"/>
</linearGradient>
<clipPath id="clip0_2_149">
<rect width="133" height="113" fill="white"/>
</clipPath>
</defs>
</svg>
