<svg width="64" height="59" viewBox="0 0 64 59" fill="none" xmlns="http://www.w3.org/2000/svg">
<path fill-rule="evenodd" clip-rule="evenodd" d="M0.833344 0.625V58.375H63.1667V0.625H0.833344ZM48.222 28.1875C48.8129 28.1893 49.4844 28.2189 49.9895 28.2708C52.0464 28.4817 53.6482 29.3226 55.011 30.9066C55.6897 31.6956 55.9218 32.0408 55.8724 32.1885C55.8405 32.2838 55.3749 32.5998 53.8944 33.5311C52.4402 34.446 51.9717 34.72 51.8629 34.72C51.7526 34.72 51.5228 34.4959 51.1915 34.0656C50.5535 33.237 49.9021 32.8589 48.8951 32.7328C47.8121 32.5968 46.8407 32.9203 46.365 33.5756C45.9584 34.1354 45.8969 35.0363 46.2202 35.6908C46.5946 36.449 47.2724 36.8681 49.87 37.9475C52.8659 39.1924 54.384 40.0444 55.4897 41.1018C56.6805 42.2406 57.2837 43.5554 57.469 45.4151C57.5595 46.3216 57.449 47.396 57.1752 48.2694C56.5039 50.4107 54.6924 51.9786 52.0371 52.7166C51.3031 52.9205 50.6202 53.0423 49.9446 53.0892C48.9133 53.1611 47.437 53.1215 46.5485 52.9989C44.3005 52.6886 41.7629 51.449 40.4975 50.0434C39.8763 49.3535 39.0833 48.218 39.0833 48.0182C39.0833 47.9218 39.1337 47.8671 39.3335 47.7468C39.9257 47.3902 43.3198 45.5515 43.3857 45.5515C43.4255 45.5515 43.6028 45.7496 43.7795 45.9915C44.1799 46.5394 45.1644 47.481 45.665 47.7952C46.0739 48.0518 46.5967 48.2579 47.2174 48.4065C47.5729 48.4905 47.7612 48.5055 48.5369 48.5055C49.3294 48.5052 49.4921 48.4926 49.8466 48.4023C50.7845 48.1631 51.5166 47.6682 51.8268 47.0636C51.9628 46.8024 51.9654 46.7698 51.9654 46.1361V45.4792L51.7988 45.1659C51.395 44.4064 50.525 43.8853 47.7745 42.7562C46.5111 42.2376 44.9637 41.5063 44.3595 41.1425C42.9809 40.3123 42.0253 39.3631 41.3983 38.2012C40.7745 37.0458 40.6815 36.6157 40.68 34.8783C40.6784 33.5183 40.676 33.535 40.9732 32.6669C41.2428 31.8792 41.7946 30.9993 42.4039 30.3857C43.6198 29.1608 45.3963 28.3737 47.2982 28.2171C47.5415 28.1953 47.8675 28.1865 48.222 28.1875ZM31.8613 29.5002C35.4849 29.502 37.5627 29.5136 37.5961 29.533C37.6589 29.5692 37.6667 29.8621 37.6667 31.7318V33.8887L34.0508 33.9009L30.435 33.9131V43.4498C30.435 48.6951 30.4235 53.0177 30.4078 53.0559C30.3823 53.1201 30.1042 53.125 27.7515 53.125H25.1237L25.0966 53.0263C25.079 52.9722 25.0662 48.6494 25.0659 43.4202L25.065 33.9126L21.4492 33.9006L17.8333 33.8884V31.757C17.8333 30.0666 17.8459 29.6138 17.8943 29.5689C17.9441 29.5212 19.7894 29.5089 27.7407 29.5016C29.2738 29.5002 30.6533 29.4996 31.8613 29.5002Z" fill="#0288D1"/>
</svg>
